<svg width="16" height="16" viewBox="0 0 16 16" fill="none" xmlns="http://www.w3.org/2000/svg">
<path d="M8.46711 1.16181C8.46711 1.80345 7.94579 2.32363 7.30273 2.32363H3.39419C2.86535 2.32363 2.43671 2.75139 2.43671 3.279V8.69844C2.43671 9.36985 1.89125 9.91411 1.21836 9.91411C0.545461 9.91411 0 9.36985 0 8.69844V2.90553C0 1.30083 1.3037 0 2.91193 0H7.30267C7.94572 0 8.46711 0.520174 8.46711 1.16181Z" fill="#1463FF"/>
<path d="M15.0207 5.92453V15.5702C15.0207 15.8748 14.7117 16.0826 14.4287 15.9683L11.0528 14.6048C10.9274 14.5652 10.7968 14.5451 10.6653 14.5451H6.13365C5.42449 14.5451 4.84961 13.9715 4.84961 13.2639V5.92453C4.84961 5.21692 5.42449 4.64331 6.13365 4.64331H13.7366C14.4458 4.64331 15.0207 5.21692 15.0207 5.92453Z" fill="#1463FF"/>
</svg>
